<svg id="レイヤー_1" data-name="レイヤー 1" xmlns="http://www.w3.org/2000/svg" xmlns:xlink="http://www.w3.org/1999/xlink" viewBox="0 0 2389 1056.43"><defs><style>.cls-1{fill:#fff;}.cls-2{fill:url(#名称未設定グラデーション_67);}</style><linearGradient id="名称未設定グラデーション_67" x1="1075.4" y1="-11.78" x2="1098.99" y2="1239.5" gradientUnits="userSpaceOnUse"><stop offset="0.08" stop-color="#fff"/><stop offset="0.11" stop-color="#f9fbff" stop-opacity="0.98"/><stop offset="0.15" stop-color="#e9f0ff" stop-opacity="0.92"/><stop offset="0.22" stop-color="#cfdeff" stop-opacity="0.81"/><stop offset="0.29" stop-color="#abc5ff" stop-opacity="0.68"/><stop offset="0.32" stop-color="#97b8ff" stop-opacity="0.6"/></linearGradient></defs><path class="cls-1" d="M688.89,354h25.86v3.14h-1.42a4.66,4.66,0,0,0-1.78.51,13.72,13.72,0,0,0-2.38,1.44,18.84,18.84,0,0,0-2.57,2.37,21.67,21.67,0,0,0-2.4,3.23,42,42,0,0,0-2.49,4.83c-.89,2-1.91,4.33-3,7l-17.88,43.68v28.83q0,10.6,1.53,13.23a7,7,0,0,0,6.57,3.56h2.4V469h-31.5v-3.14h2.63a6.81,6.81,0,0,0,6.67-4.41q1.2-2.62,1.2-12.38V421.85L650,373.68c-1.2-2.89-2.22-5.19-3-6.92s-1.45-2.95-1.88-3.69c-.22-.33-.59-.83-1.1-1.48a15.88,15.88,0,0,0-1.91-2,12.42,12.42,0,0,0-2.54-1.74,6.31,6.31,0,0,0-2.93-.72V354h31.72v3.14h-1.64a7.55,7.55,0,0,0-2.44.42,6.22,6.22,0,0,0-2.21,1.36,7.22,7.22,0,0,0-1.61,2.33,8.11,8.11,0,0,0-.63,3.35q0,3.06,3.33,11l15.48,37.06,14.55-35.45c2.18-5.32,3.28-9.27,3.28-11.88a19.23,19.23,0,0,0-.49-3.3,7.33,7.33,0,0,0-1.21-2.63,5.17,5.17,0,0,0-2.24-1.7,9.37,9.37,0,0,0-3.55-.59Z" transform="translate(110)"/><path class="cls-1" d="M767.82,387v-2h26.25v2h-2.79a7.53,7.53,0,0,0-6.72,3.67q-1.15,1.75-1.15,7.87v30.08q0,11.1-2.24,17.34a19.46,19.46,0,0,1-4,6.81,22.76,22.76,0,0,1-6.07,4.62,29,29,0,0,1-7.57,2.65,43.23,43.23,0,0,1-8.62.85q-12.09,0-18.43-4.21a23.75,23.75,0,0,1-6.15-5.55,20.06,20.06,0,0,1-3.17-6.46,32.66,32.66,0,0,1-1.18-7.82q-.16-4.29-.16-9.76v-29a27.94,27.94,0,0,0-.47-5.64,7.94,7.94,0,0,0-1.45-3.39,4.88,4.88,0,0,0-2.48-1.64,13.05,13.05,0,0,0-3.59-.44H715v-2h32v2H744.2a10.09,10.09,0,0,0-4.21.74,5.35,5.35,0,0,0-2.41,2.16,9.19,9.19,0,0,0-1.07,3.5,41.53,41.53,0,0,0-.24,4.71v32.32c0,1.82.05,3.62.16,5.41a38.62,38.62,0,0,0,.66,5.17,28.19,28.19,0,0,0,1.34,4.7,17.08,17.08,0,0,0,2.21,4.08,15,15,0,0,0,5.72,4.67,21.15,21.15,0,0,0,9.16,1.72,28.09,28.09,0,0,0,6.92-.84,26.69,26.69,0,0,0,6.07-2.35,20.46,20.46,0,0,0,4.78-3.56,14.32,14.32,0,0,0,3.06-4.51q2.14-5,2.14-16.79v-30q0-7-1.53-8.7c-1.43-1.6-3.54-2.41-6.35-2.41Z" transform="translate(110)"/><path class="cls-1" d="M871,459.13H851.17l-25.1-34.67-2.55.08c-.75,0-1.41,0-2,0s-1,0-1.53,0l-1.7-.08V446q0,7,1.53,8.7c1.39,1.6,3.46,2.4,6.24,2.4H829v2H797.19v-2H800q4.65,0,6.73-3.06,1.14-1.69,1.14-8V398.1q0-7-1.53-8.7c-1.42-1.6-3.53-2.41-6.34-2.41h-2.79v-2h27q11.7,0,17.39,1.75a18.9,18.9,0,0,1,5.22,2.46,20,20,0,0,1,4.26,3.88,18,18,0,0,1,2.9,5,16.55,16.55,0,0,1,1.07,6,18.46,18.46,0,0,1-1.09,6.42,16.11,16.11,0,0,1-3.37,5.44,20.8,20.8,0,0,1-5.71,4.27,33,33,0,0,1-8.1,2.84l15.32,21.28q5.29,7.38,9,9.73A22.85,22.85,0,0,0,871,457.1ZM818.3,421q1,0,1.8,0c.51,0,.93,0,1.26,0a32,32,0,0,0,9.33-1.23,19.48,19.48,0,0,0,6.7-3.41,14.2,14.2,0,0,0,4-5.17,15.69,15.69,0,0,0,1.34-6.48,17,17,0,0,0-1.15-6.32,14.42,14.42,0,0,0-3.26-4.95,14.67,14.67,0,0,0-5-3.22,17.33,17.33,0,0,0-6.42-1.15,33.77,33.77,0,0,0-3.72.24c-1.42.17-3,.43-4.87.8Z" transform="translate(110)"/><path class="cls-1" d="M904.54,456v2H872.77v-2h2.62q4.65,0,6.68-2.61c.87-1.09,1.31-3.82,1.31-8.17V398.74c0-1.7,0-3.08-.11-4.14a12.65,12.65,0,0,0-.41-2.63,3.69,3.69,0,0,0-.88-1.62,6.27,6.27,0,0,0-1.56-1.11,10.59,10.59,0,0,0-5-1.28h-2.62v-2h31.77v2h-2.68c-3.06,0-5.27.87-6.61,2.61-.92,1.09-1.37,3.82-1.37,8.17v46.52c0,1.7,0,3.08.11,4.14a12.11,12.11,0,0,0,.41,2.6,3.85,3.85,0,0,0,.9,1.62,6.38,6.38,0,0,0,1.59,1.14,10.25,10.25,0,0,0,5,1.28Z" transform="translate(110)"/><path class="cls-1" d="M1357.54,467.3V470h-31.77v-2.7h2.62q4.65,0,6.68-3.58,1.31-2.27,1.31-11.25v-64c0-2.34,0-4.24-.11-5.7a23.36,23.36,0,0,0-.41-3.61A5.86,5.86,0,0,0,1335,377a6.69,6.69,0,0,0-1.56-1.53,8.41,8.41,0,0,0-5-1.76h-2.62V371h31.77v2.7h-2.68a7,7,0,0,0-6.61,3.58q-1.38,2.26-1.37,11.25v64c0,2.34,0,4.24.11,5.7a22.62,22.62,0,0,0,.41,3.58,6,6,0,0,0,.9,2.23,7.19,7.19,0,0,0,1.59,1.57,8.21,8.21,0,0,0,5,1.75Z" transform="translate(110)"/><path class="cls-1" d="M905.8,385h20.12l45.34,55.62V397.82c0-4.55-.51-7.4-1.53-8.53q-2.09-2.3-6.4-2.3h-2.57v-2h25.81v2H984q-4.71,0-6.67,2.85-1.21,1.7-1.21,8v62.51h-2l-48.89-59.72v45.67c0,4.55.5,7.4,1.48,8.53q2,2.29,6.4,2.29h2.62v2H909.9v-2h2.57c3.17,0,5.42-.94,6.73-2.84q1.2-1.69,1.2-8V394.71c-1.09-1.28-2-2.3-2.73-3.07a17,17,0,0,0-2.08-1.88,9.36,9.36,0,0,0-2.13-1.21c-.77-.31-1.72-.66-2.85-1.06a17.3,17.3,0,0,0-4.81-.5Z" transform="translate(110)"/><path class="cls-1" d="M1039.4,434.3h-28.71l-5,11.7a18.17,18.17,0,0,0-1.86,6.46,4.23,4.23,0,0,0,.3,1.61,3.19,3.19,0,0,0,1.23,1.37,8.35,8.35,0,0,0,2.63,1,29.21,29.21,0,0,0,4.43.62v2H989v-2c3.07-.54,5.07-1.25,6-2.13a16.68,16.68,0,0,0,2.93-4,72.51,72.51,0,0,0,3.25-6.7l26.09-61h1.91L1055,445a53,53,0,0,0,2.93,6.16,14.73,14.73,0,0,0,2.76,3.61,8.06,8.06,0,0,0,3.09,1.77,16.69,16.69,0,0,0,4,.6v2h-29.25v-2a18,18,0,0,0,3.66-.49,7,7,0,0,0,2.32-1,3.53,3.53,0,0,0,1.21-1.37,3.92,3.92,0,0,0,.35-1.7,9.24,9.24,0,0,0-.52-3.08,48.05,48.05,0,0,0-1.66-4.52Zm-1.53-4.05-12.58-30-12.9,30Z" transform="translate(110)"/><path class="cls-1" d="M1161.85,385v17.39h-1.26a23.08,23.08,0,0,0-1.45-5.93,11.06,11.06,0,0,0-2.65-3.94,10.06,10.06,0,0,0-4-2.19,20,20,0,0,0-5.47-.68h-10.45v56.66c0,4.55.49,7.4,1.48,8.53q2,2.29,6.4,2.29H1147v2h-31.45v-2h2.63c3.13,0,5.36-.94,6.67-2.84q1.2-1.69,1.2-8V389.62h-8.91a31,31,0,0,0-5.91.49A9.86,9.86,0,0,0,1107,392a9.73,9.73,0,0,0-2.85,3.88,25.4,25.4,0,0,0-1.64,6.51h-2.08V385Z" transform="translate(110)"/><path class="cls-1" d="M1216.7,434.3H1188l-5,11.7a18.17,18.17,0,0,0-1.86,6.46,4.23,4.23,0,0,0,.3,1.61,3.19,3.19,0,0,0,1.23,1.37,8.28,8.28,0,0,0,2.62,1,29.4,29.4,0,0,0,4.43.62v2h-23.35v-2q4.59-.81,6-2.13a16.69,16.69,0,0,0,2.92-4,69.82,69.82,0,0,0,3.26-6.7l26.08-61h1.92L1232.34,445a54.92,54.92,0,0,0,2.92,6.16,15,15,0,0,0,2.77,3.61,7.92,7.92,0,0,0,3.09,1.77,16.69,16.69,0,0,0,4,.6v2h-29.26v-2a18.14,18.14,0,0,0,3.67-.49,7,7,0,0,0,2.32-1,3.42,3.42,0,0,0,1.2-1.37,3.92,3.92,0,0,0,.36-1.7,9.51,9.51,0,0,0-.52-3.08q-.57-1.89-1.67-4.52Zm-1.53-4.05-12.58-30-12.91,30Z" transform="translate(110)"/><path class="cls-1" d="M1244.86,385H1265l45.33,55.62V397.82c0-4.55-.51-7.4-1.53-8.53-1.38-1.53-3.52-2.3-6.4-2.3h-2.57v-2h25.82v2H1323c-3.13,0-5.36.95-6.67,2.85q-1.2,1.7-1.2,8v62.51h-2l-48.89-59.72v45.67c0,4.55.49,7.4,1.47,8.53q2,2.29,6.4,2.29h2.63v2H1249v-2h2.57c3.18,0,5.42-.94,6.73-2.84q1.2-1.69,1.2-8V394.71c-1.09-1.28-2-2.3-2.73-3.07a17,17,0,0,0-2.08-1.88,9.15,9.15,0,0,0-2.13-1.21c-.77-.31-1.72-.66-2.85-1.06a17.25,17.25,0,0,0-4.81-.5Z" transform="translate(110)"/><path class="cls-2" d="M-110,941.43a927.06,927.06,0,0,0,231.43,86c260.82,59.08,411.79-23.92,739.1-76,544.67-86.68,1000.23,4.12,1148.46,35,114.3,23.8,206.89,50.28,270,70V0H-110Z" transform="translate(110)"/></svg>